<svg id="Layer_1" data-name="Layer 1" xmlns="http://www.w3.org/2000/svg" viewBox="0 0 164 212"><defs><style>.cls-1,.cls-2{fill:#00a8ac;}.cls-2{font-size:19.19px;font-family:DINAlternate-Bold, DIN Alternate;font-weight:700;letter-spacing:0.1em;}.cls-3{letter-spacing:0.08em;}.cls-4{letter-spacing:0.09em;}.cls-5{letter-spacing:0.44em;}.cls-6{letter-spacing:0.36em;}.cls-7{letter-spacing:0.42em;}.cls-8{letter-spacing:0.43em;}.cls-9{fill:#fff;}</style></defs><title>Logo</title><path class="cls-1" d="M7.31,1V151.94H158.24V1Z"/><text class="cls-2" transform="translate(10.13 173.84)">NUE<tspan class="cls-3" x="41.35" y="0">V</tspan><tspan class="cls-4" x="53.5" y="0">O MUNDO</tspan><tspan class="cls-5"><tspan x="2.27" y="22.9">ES</tspan><tspan class="cls-6" x="40.64" y="22.9">P</tspan><tspan class="cls-7" x="58.93" y="22.9">A</tspan><tspan class="cls-8" x="78.64" y="22.9">CIOS</tspan></tspan></text><polygon class="cls-9" points="40.78 40.74 40.78 84.97 33.67 84.97 33.67 33.63 66.29 33.63 66.29 119.3 59.19 119.3 59.19 40.74 40.78 40.74"/><polygon class="cls-9" points="131.29 119.3 124.19 119.3 124.19 40.74 105.78 40.74 105.78 119.3 98.67 119.3 98.67 40.74 80.26 40.74 80.26 84.97 73.15 84.97 73.15 33.63 102.22 33.63 105.78 33.63 131.29 33.63 131.29 119.3"/></svg>